<svg width="376" height="272" xmlns="http://www.w3.org/2000/svg" xmlns:xlink="http://www.w3.org/1999/xlink" xml:space="preserve" overflow="hidden"><defs><clipPath id="clip0"><rect x="451" y="231" width="376" height="272"/></clipPath><clipPath id="clip1"><rect x="452" y="351" width="151" height="151"/></clipPath></defs><g clip-path="url(#clip0)" transform="translate(-451 -231)"><path d="M67.1303-103.814 13.7916-103.814C8.58523-103.814 4.29522-99.5241 4.29522-94.1876L4.29522-9.62649C4.29522-4.29522 8.58523 0 13.7916 0L30.0509 0C35.3874 0 39.6774-4.29522 39.6774-9.62649L39.6774-34.0858C39.6774-34.7366 40.0679-34.9969 40.5885-35.1271L59.7113-35.1271C63.0954-35.1271 65.9589-37.8552 65.9589-41.2393L65.9589-55.5515C65.9589-59.0605 63.0954-61.7939 59.7113-61.7939L40.5885-61.7939C40.0679-61.7939 39.6774-62.1843 39.6774-62.705L39.6774-74.6743C39.6774-75.0648 40.0679-75.5854 40.5885-75.5854L67.1303-75.5854C70.8997-75.5854 73.8933-78.7092 73.8933-82.3484L73.8933-96.9209C73.8933-100.826 70.8997-103.814 67.1303-103.814Z" fill="#4F2C78" transform="matrix(1.00024 0 0 1 600.95 472.538)"/><path d="M13.5312 0.130158 29.6604 0.130158C35.1271 0.130158 39.0266-4.29522 39.0266-9.23602L39.0266-94.7082C39.0266-100.175 35.1271-104.074 29.6604-104.074L13.5312-104.074C8.45507-104.074 4.29522-100.175 4.29522-94.7082L4.29522-9.23602C4.29522-4.29522 8.45507 0.130158 13.5312 0.130158Z" fill="#4F2C78" transform="matrix(1.00024 0 0 1 679.153 472.538)"/><path d="M87.1643-104.074 13.4011-104.074C8.45507-104.074 4.29522-100.045 4.29522-94.9686L4.29522-77.1473C4.29522-72.2013 8.45507-68.0414 13.4011-68.0414L31.3525-68.0414C31.8731-68.0414 32.2636-67.5208 32.2636-67.1303L32.2636-8.84554C32.2636-3.90474 36.2985 0.260316 41.4996 0.260316L59.1907 0.260316C64.1367 0.260316 68.3018-3.90474 68.3018-8.84554L68.3018-67.1303C68.3018-67.5208 68.8224-68.0414 69.3378-68.0414L87.1643-68.0414C92.1051-68.0414 96.2701-72.2013 96.2701-77.1473L96.2701-94.9686C96.2701-100.045 92.1051-104.074 87.1643-104.074Z" fill="#4F2C78" transform="matrix(1.00024 0 0 1 722.484 472.538)"/><path d="M219.862 0.0609118 166.502 0.0609118C161.296 0.0609118 157.006 4.37696 157.006 9.71344L157.006 94.2642C157.006 99.6006 161.296 103.885 166.502 103.885L182.767 103.885C188.103 103.885 192.388 99.6006 192.388 94.2642L192.388 69.8101C192.388 69.1384 192.805 68.8885 193.31 68.7584L212.432 68.7584C215.832 68.7584 218.69 66.0303 218.69 62.6618L218.69 48.3392C218.69 44.8093 215.832 42.0812 212.432 42.0812L193.31 42.0812C192.805 42.0812 192.388 41.7011 192.388 41.1909L192.388 29.2163C192.388 28.8363 192.805 28.2948 193.31 28.2948L219.862 28.2948C223.61 28.2948 226.63 25.1814 226.63 21.5318L226.63 6.95409C226.63 3.07537 223.61 0.0609118 219.862 0.0609118ZM244.436 104.016 260.57 104.016C266.032 104.016 269.941 99.6006 269.941 94.6442L269.941 9.17719C269.941 3.71055 266.032-0.194198 260.57-0.194198L244.436-0.194198C239.354-0.194198 235.194 3.71055 235.194 9.17719L235.194 94.6442C235.194 99.6006 239.354 104.016 244.436 104.016ZM361.38-0.194198 287.627-0.194198C282.676-0.194198 278.511 3.8407 278.511 8.92208L278.511 26.7381C278.511 31.6945 282.676 35.8544 287.627 35.8544L305.574 35.8544C306.115 35.8544 306.495 36.3646 306.495 36.7447L306.495 95.0243C306.495 99.9807 310.53 104.141 315.736 104.141L333.427 104.141C338.353 104.141 342.512 99.9807 342.512 95.0243L342.512 36.7447C342.512 36.3646 343.054 35.8544 343.559 35.8544L361.38 35.8544C366.331 35.8544 370.491 31.6945 370.491 26.7381L370.491 8.92208C370.491 3.8407 366.331-0.194198 361.38-0.194198Z" stroke="#4F2C78" stroke-width="2.11419" fill="none" transform="matrix(1.00024 0 0 1 452.667 365.4)"/><path d="M67.1303-103.814 13.7916-103.814C8.58523-103.814 4.29522-99.5241 4.29522-94.1876L4.29522-9.62649C4.29522-4.29522 8.58523 0 13.7916 0L30.0509 0C35.3874 0 39.6774-4.29522 39.6774-9.62649L39.6774-34.0858C39.6774-34.7366 40.0679-34.9969 40.5885-35.1271L59.7113-35.1271C63.0954-35.1271 65.9589-37.8552 65.9589-41.2393L65.9589-55.5515C65.9589-59.0605 63.0954-61.7939 59.7113-61.7939L40.5885-61.7939C40.0679-61.7939 39.6774-62.1843 39.6774-62.705L39.6774-74.6743C39.6774-75.0648 40.0679-75.5854 40.5885-75.5854L67.1303-75.5854C70.8997-75.5854 73.8933-78.7092 73.8933-82.3484L73.8933-96.9209C73.8933-100.826 70.8997-103.814 67.1303-103.814Z" fill="#5CE1E6" transform="matrix(1.00024 0 0 1 452.735 345.253)"/><path d="M99.2638-10.9281 77.1473-95.0987C76.7568-96.6606 76.3664-99.0034 74.5441-101.081 72.5918-103.033 70.1188-103.554 68.3018-103.554L34.216-103.554C32.2636-103.554 30.4414-102.903 29.1398-101.862 27.8382-100.951 26.4117-99.3939 25.891-97.0511L2.473-11.0582C1.43174-6.89317 3.38411-2.473 7.28365-0.780949 8.32491-0.260316 9.36618-0.130158 10.6678-0.130158L28.3588-0.130158C33.1747-0.130158 35.1271-3.12379 37.0794-8.0646L40.8488-18.2117 60.7526-18.2117 64.6573-8.0646C66.6097-3.12379 68.5621 0 73.3727 0L91.0638 0C92.4955 0 93.9273-0.390475 94.9686-1.04126 98.4828-2.86348 100.175-7.02333 99.2638-10.9281ZM56.9832-48.2626 44.8837-48.2626C43.5821-48.2626 42.5409-49.434 43.1917-50.7356L46.5758-59.5812 49.1737-66.3494C49.6944-68.0414 52.0372-68.0414 52.5578-66.3494L55.2912-59.5812 58.6701-50.7356C59.0605-49.434 58.1546-48.2626 56.9832-48.2626Z" fill="#5CE1E6" transform="matrix(1.00024 0 0 1 530.939 345.253)"/><path d="M45.5345-108.76C43.9726-108.76 2.21269-110.973 2.21269-74.8045 2.21269-52.1674 18.6022-39.1568 40.5885-39.1568L48.3928-39.1568C52.688-39.1568 56.2023-36.5588 56.2023-32.2636 56.2023-28.0985 52.688-25.1101 49.0436-25.1101 46.9662-25.1101 43.452-25.7609 42.1504-30.962 41.7599-32.0033 41.2393-32.6541 39.2869-32.2636L4.42537-28.0985C2.473-27.7081 2.08253-26.4117 3.12379-24.4593 8.45507-9.62649 17.9514 4.68569 50.4753 4.68569 66.87 4.68569 87.5547-4.29522 87.5547-32.9144 87.5547-68.1716 56.4626-65.5684 45.5345-65.5684 42.1504-65.5684 35.6477-66.3494 35.6477-72.5918 35.6477-77.6679 39.9377-79.8754 42.8012-79.8754 44.8837-79.8754 48.3928-78.3187 49.6944-74.8045 50.215-73.2426 51.3864-72.5918 52.688-72.5918L84.5611-77.0171C85.9929-77.1473 87.0341-78.579 86.6436-80.5262 85.2119-87.5547 78.9695-108.76 45.5345-108.76Z" fill="#5CE1E6" transform="matrix(1.00024 0 0 1 632.694 345.253)"/><path d="M87.1643-104.074 13.4011-104.074C8.45507-104.074 4.29522-100.045 4.29522-94.9686L4.29522-77.1473C4.29522-72.2013 8.45507-68.0414 13.4011-68.0414L31.3525-68.0414C31.8731-68.0414 32.2636-67.5208 32.2636-67.1303L32.2636-8.84554C32.2636-3.90474 36.2985 0.260316 41.4996 0.260316L59.1907 0.260316C64.1367 0.260316 68.3018-3.90474 68.3018-8.84554L68.3018-67.1303C68.3018-67.5208 68.8224-68.0414 69.3378-68.0414L87.1643-68.0414C92.1051-68.0414 96.2701-72.2013 96.2701-77.1473L96.2701-94.9686C96.2701-100.045 92.1051-104.074 87.1643-104.074Z" fill="#5CE1E6" transform="matrix(1.00024 0 0 1 722.479 345.253)"/><path d="M71.6846 0.0619153 18.325 0.0619153C13.1187 0.0619153 8.82867 4.37796 8.82867 9.71444L8.82867 94.2652C8.82867 99.6016 13.1187 103.886 18.325 103.886L34.5896 103.886C39.9208 103.886 44.2109 99.6016 44.2109 94.2652L44.2109 69.8058C44.2109 69.1394 44.6222 68.8843 45.1324 68.7594L64.25 68.7594C67.6497 68.7594 70.508 66.0261 70.508 62.6628L70.508 48.335C70.508 44.8103 67.6497 42.0822 64.25 42.0822L45.1324 42.0822C44.6222 42.0822 44.2109 41.6969 44.2109 41.1919L44.2109 29.2173C44.2109 28.8373 44.6222 28.2958 45.1324 28.2958L71.6846 28.2958C75.4332 28.2958 78.4476 25.1824 78.4476 21.5328L78.4476 6.94988C78.4476 3.07638 75.4332 0.0619153 71.6846 0.0619153ZM181.981 92.9636 159.875 8.79292C159.495 7.23623 159.078 4.88818 157.271 2.79003 155.335 0.853276 152.856 0.343058 151.013 0.343058L116.933 0.343058C114.996 0.343058 113.153 0.978228 111.883 2.02991 110.581 2.95143 109.118 4.50812 108.613 6.82493L85.2055 92.8334C84.1538 96.9933 86.0905 101.408 90.0005 103.095 91.047 103.631 92.0934 103.761 93.4002 103.761L111.091 103.761C115.886 103.761 117.854 100.773 119.791 95.8218L123.571 85.6903 143.485 85.6903 147.39 95.8218C149.332 100.773 151.3 103.886 156.095 103.886L173.786 103.886C175.212 103.886 176.644 103.506 177.691 102.84 181.215 101.028 182.902 96.8683 181.981 92.9636ZM139.705 55.6082 127.606 55.6082C126.304 55.6082 125.253 54.468 125.919 53.1664L129.287 44.3053 131.891 37.537C132.432 35.8554 134.749 35.8554 135.29 37.537L138.024 44.3053 141.387 53.1664C141.803 54.468 140.882 55.6082 139.705 55.6082ZM230.004-4.86327C228.416-4.86327 186.682-7.08637 186.682 29.0872 186.682 51.7347 203.071 64.7245 225.047 64.7245L232.862 64.7245C237.147 64.7245 240.645 67.3276 240.645 71.6176 240.645 75.7775 237.147 78.7659 233.497 78.7659 231.43 78.7659 227.906 78.1308 226.604 72.9192 226.224 71.8728 225.683 71.2376 223.746 71.6176L188.874 75.7775C186.937 76.194 186.552 77.4956 187.572 79.4323 192.903 94.2652 202.405 108.557 234.924 108.557 251.313 108.557 272.024 99.6016 272.024 70.9825 272.024 35.7252 240.927 38.3336 230.004 38.3336 226.604 38.3336 220.091 37.537 220.091 31.279 220.091 26.2289 224.381 24.0058 227.27 24.0058 229.337 24.0058 232.862 25.5625 234.164 29.0872 234.674 30.6439 235.845 31.279 237.147 31.279L269.004 26.8641C270.436 26.7391 271.483 25.3126 271.102 23.3706 269.671 16.3213 263.418-4.86327 230.004-4.86327ZM361.375-0.193195 287.622-0.193195C282.671-0.193195 278.506 3.84171 278.506 8.92308L278.506 26.7391C278.506 31.6955 282.671 35.8554 287.622 35.8554L305.568 35.8554C306.11 35.8554 306.49 36.3604 306.49 36.7457L306.49 95.0253C306.49 99.9817 310.525 104.142 315.731 104.142L333.422 104.142C338.347 104.142 342.507 99.9817 342.507 95.0253L342.507 36.7457C342.507 36.3604 343.049 35.8554 343.554 35.8554L361.375 35.8554C366.326 35.8554 370.491 31.6955 370.491 26.7391L370.491 8.92308C370.491 3.84171 366.326-0.193195 361.375-0.193195Z" stroke="#B2EDEF" stroke-width="2.11419" fill="none" transform="matrix(1.00024 0 0 1 452.667 238.115)"/><path d="M115.377 246.754C115.914 250.466 118.782 255.771 119.397 256.739 121.37 259.858 123.489 262.883 125.597 265.908 126.493 267.189 127.409 268.495 128.674 269.412 129.939 270.328 131.637 270.802 133.089 270.229 135.505 269.276 137.723 268.162 139.743 266.538 145.761 261.701 152.769 254.022 156.148 247.087 156.382 246.598 156.627 246.098 156.783 245.582L156.955 245.629C158.6 247.347 160.579 247.904 162.5 248.43 166.774 249.591 174.448 249.747 177.707 253.584 184.757 261.883 186.126 276.701 189.292 286.868 192.066 295.766 194.992 304.617 198.08 313.405 200.032 318.965 204.26 324.338 205.004 330.263 205.369 333.147 203.739 333.267 201.693 334.84 199.626 336.427 198.038 338.625 197.288 341.134 196.591 343.472 196.565 346.054 195.274 348.121 192.967 351.807 187.901 352.203 183.747 353.473 178.598 355.045 175.484 358.544 171.538 361.845 167.3 365.39 163.447 369.399 158.855 372.518 151.988 377.177 143.622 379.442 135.349 379.265 126.961 379.083 120.422 377.089 114.664 370.826 111.707 367.608 108.942 364.089 105.209 361.813 101.362 359.476 96.671 358.58 93.214 355.691 90.8503 353.712 89.278 350.969 87.7578 348.282 86.4146 345.919 85.4149 343.118 83.1762 341.566 81.4894 340.395 79.2455 339.858 77.3035 339.27 73.4196 338.093 68.9526 337.135 66.4119 333.663 64.8291 331.502 64.3345 328.722 64.3502 326.046 64.3762 320.678 66.2661 315.503 68.3434 310.552 74.0652 296.906 81.0052 283.708 87.3569 270.333 89.6893 265.424 91.9593 256.698 96.2024 253.34 99.8052 250.492 105.506 250.789 109.744 249.633 111.665 249.107 113.644 248.55 115.289 246.837Z" fill="#F26448" transform="matrix(1.00024 0 0 1 390.139 109.982)"/><path d="M77.7929 326.155C74.6951 324.609 69.2025 320.939 65.5164 318.393 66.2557 315.722 67.2709 313.108 68.3434 310.552 70.0355 306.528 71.8316 302.534 73.6851 298.572 76.3143 300.722 79.1465 302.581 82.1298 304.107 88.7262 307.485 94.0366 310.292 98.3058 316.987 99.9406 319.559 101.279 322.417 103.293 324.599 106.074 327.618 109.859 329.04 113.014 331.533 116.486 334.277 119.1 338.244 122.442 341.202 130.2 348.053 141.81 348.366 149.833 341.936 155.664 337.26 159.569 329.581 165.967 326.036 171.569 322.933 179.045 322.912 182.44 316.909 184.184 313.822 184.226 310.083 186.006 307.079 187.886 303.904 190.374 301.352 193.306 299.332 194.857 304.034 196.45 308.73 198.09 313.405 198.783 315.368 199.751 317.31 200.761 319.257 200.001 319.621 199.095 320.085 197.991 320.678 191.546 324.167 186.027 339.098 182.466 342.842 178.9 346.59 167.034 349.448 164.26 350.531 161.495 351.609 152.254 364.016 145.475 367.395 138.702 370.768 132.61 368.66 129.049 367.874 125.488 367.082 115.455 358.846 112.878 354.889 110.306 350.937 102.185 349.022 100.279 347.48 98.3735 345.939 93.4431 338.338 91.8343 336.073 90.2152 333.819 82.7545 328.639 77.7929 326.155ZM151.551 245.395C142.638 254.074 125.811 254.589 120.849 246.655L120.053 245.395C123.9 251.283 124.468 259.275 129.544 264.19 130.689 265.299 132.1 265.653 133.589 265.064 135.073 264.481 136.338 263.45 137.561 262.42 142.232 258.504 146.178 253.668 149.494 248.566 150.176 247.514 150.838 246.436 151.551 245.395ZM77.392 296.24C80.4741 298.947 84.1498 300.509 87.7109 302.014 88.1431 302.201 88.5856 302.388 89.0177 302.576 92.204 303.945 95.3434 307.376 97.4207 309.646 98.9722 311.338 100.472 313.259 101.883 315.347L101.95 315.456C103.679 318.018 105.631 320.923 108.115 322.933 109.02 323.662 110.004 324.198 110.962 324.718 112.118 325.348 113.212 325.942 114.175 326.853 115.601 328.196 116.83 329.779 118.022 331.31 119.142 332.752 120.297 334.246 121.635 335.558 122.26 336.172 122.89 336.834 123.499 337.479 125.285 339.364 127.133 341.311 129.382 342.654 131.007 343.623 133.261 343.977 135.416 343.977 136.515 343.977 137.593 343.883 138.551 343.737 145.626 342.639 151.15 337.297 155.169 332.767 155.69 332.184 156.205 331.591 156.721 330.992 159.048 328.321 161.448 325.562 164.306 323.432 166.165 322.053 168.258 321.183 170.288 320.345 173.417 319.049 176.656 317.706 179.014 314.472 180.045 313.056 180.748 311.442 181.43 309.891 181.571 309.568 181.706 309.245 181.852 308.928 183.544 305.143 185.329 302.362 187.469 300.171 188.906 298.692 190.572 297.458 192.337 296.401 192.202 295.985 192.066 295.573 191.931 295.162 189.984 296.302 188.151 297.651 186.558 299.286 184.314 301.587 182.445 304.487 180.691 308.412 180.55 308.73 180.404 309.058 180.269 309.381 179.613 310.875 178.941 312.421 177.989 313.723 175.844 316.669 172.907 317.883 169.804 319.168 167.701 320.038 165.535 320.939 163.551 322.417 160.584 324.625 158.132 327.441 155.768 330.164 155.258 330.747 154.742 331.341 154.227 331.919 150.343 336.292 145.027 341.441 138.358 342.477 135.869 342.862 132.204 342.852 130.033 341.561 127.93 340.306 126.144 338.421 124.416 336.599 123.801 335.948 123.166 335.282 122.531 334.652 121.25 333.392 120.12 331.934 119.027 330.523 117.809 328.956 116.544 327.337 115.049 325.921 113.961 324.901 112.748 324.239 111.577 323.599 110.629 323.084 109.734 322.594 108.916 321.938 106.579 320.054 104.684 317.232 103.007 314.743L102.934 314.634C101.497 312.494 99.9562 310.521 98.3631 308.782 95.6298 305.793 92.6934 302.763 89.5279 301.404 89.0854 301.212 88.6481 301.024 88.2107 300.842 84.5871 299.301 81.1614 297.854 78.2406 295.282 77.5274 294.652 76.8558 293.97 76.205 293.267 76.0123 293.673 75.8197 294.084 75.6166 294.49 76.1789 295.1 76.7672 295.683 77.392 296.24Z" fill="#4B4978" transform="matrix(1.00024 0 0 1 390.139 109.982)"/><g clip-path="url(#clip1)"><path d="M119.391 256.739C118.433 255.224 112.024 243.229 117.434 243.052 118.158 243.026 118.746 243.62 119.194 244.192 123.838 250.159 124.108 258.931 129.539 264.19 130.684 265.299 132.095 265.653 133.584 265.064 135.073 264.481 136.333 263.45 137.556 262.42 142.226 258.504 146.173 253.668 149.489 248.566 150.458 247.082 151.374 245.556 152.452 244.145 153.279 243.057 154.623 241.943 155.862 242.521 156.632 242.88 157.002 243.817 156.955 244.666 156.908 245.52 156.528 246.311 156.153 247.082 152.774 254.022 145.767 261.696 139.748 266.533 137.728 268.157 135.505 269.276 133.094 270.224 131.642 270.791 129.939 270.323 128.679 269.406 127.414 268.49 126.493 267.183 125.603 265.903 123.484 262.888 121.37 259.858 119.391 256.739ZM93.6514 340.218C94.1668 340.967 94.651 341.738 95.1612 342.555 96.3586 344.461 97.5925 346.429 99.2534 348.095 101.247 350.099 103.611 351.427 105.891 352.713 107.334 353.53 108.703 354.296 109.963 355.217 111.868 356.612 113.529 358.356 115.284 360.205 116.783 361.777 118.329 363.407 120.063 364.828 124.785 368.691 130.668 370.633 136.557 370.633 141.997 370.633 147.448 368.972 151.962 365.614 154.8 363.506 157.21 360.85 159.532 358.289 162.578 354.926 165.457 351.755 169.107 349.886 170.981 348.923 173.089 348.277 175.318 347.585 179.993 346.148 184.824 344.664 187.636 340.056 188.698 338.312 189.224 336.49 189.729 334.72 190.197 333.09 190.635 331.554 191.468 330.263 193.368 327.29 195.992 324.77 199.256 322.776 200.089 322.266 200.938 321.803 201.813 321.366 201.235 320.231 200.647 319.101 200.079 317.976 199.126 318.455 198.194 318.965 197.278 319.528 195.815 320.423 194.467 321.412 193.227 322.485 193.16 322.547 193.103 322.605 193.035 322.667 191.171 324.318 189.567 326.166 188.255 328.217 187.136 329.977 186.595 331.861 186.069 333.678 186.058 333.725 186.043 333.767 186.032 333.809 185.585 335.355 185.158 336.813 184.387 338.078 182.893 340.52 180.42 341.832 177.577 342.852 176.494 343.248 175.354 343.597 174.204 343.951 171.913 344.659 169.544 345.382 167.368 346.502 163.801 348.329 160.948 351.13 158.272 354.025 158.231 354.072 158.184 354.124 158.142 354.171 157.663 354.691 157.189 355.212 156.721 355.732 154.409 358.278 152.233 360.678 149.692 362.563 146.485 364.948 142.731 366.327 138.879 366.723 138.853 366.728 138.832 366.728 138.806 366.728 135.125 367.098 131.361 366.562 127.909 365.135 125.972 364.328 124.14 363.25 122.474 361.886 120.922 360.616 119.522 359.143 118.043 357.586 116.247 355.696 114.388 353.749 112.212 352.151 110.77 351.094 109.244 350.229 107.76 349.402 106.131 348.48 104.574 347.605 103.205 346.528 102.768 346.179 102.346 345.809 101.95 345.408 100.586 344.039 99.5189 342.337 98.3787 340.53 97.9518 339.843 97.504 339.14 97.0355 338.447 96.9886 338.369 96.9417 338.291 96.8897 338.224 96.8532 338.172 96.822 338.114 96.7856 338.062 91.8031 330.815 85.3785 327.764 78.579 324.536 75.5386 323.094 72.6334 321.324 69.9209 319.288 69.8637 319.241 69.8012 319.194 69.7387 319.148 68.5048 318.216 67.3178 317.216 66.1828 316.18 65.735 317.518 65.3446 318.872 65.0426 320.241 68.661 323.323 72.6855 325.952 76.9443 327.972 83.5511 331.112 89.2468 333.819 93.6514 340.218ZM211.788 338.614C207.92 335.777 205.749 330.794 204.463 327.29 204.416 327.165 204.338 327.066 204.239 326.999 204.192 326.843 204.15 326.681 204.093 326.52 202.937 327.473 201.563 328.306 200.147 329.159 197.767 330.591 195.305 332.075 193.696 334.314 192.322 336.214 191.712 338.484 191.114 340.681 190.562 342.727 190.036 344.664 188.953 346.325 186.475 350.12 182.003 351.406 177.27 352.77 174.88 353.457 172.413 354.165 170.195 355.227 165.858 357.305 162.474 360.798 159.199 364.172 156.794 366.65 154.31 369.212 151.488 371.174 150.952 371.549 150.4 371.893 149.843 372.221 149.651 372.231 149.479 372.335 149.375 372.481 140.467 377.406 128.752 376.683 120.615 370.456 118.886 369.134 117.288 367.566 115.747 366.051 113.868 364.203 111.926 362.292 109.697 360.767 108.474 359.929 107.162 359.21 105.865 358.518 105.824 358.492 105.782 358.466 105.73 358.445 105.511 358.336 105.293 358.216 105.074 358.101 102.69 356.847 100.425 355.66 98.5557 353.895 96.9886 352.426 95.7547 350.578 94.552 348.792 94.0158 347.991 93.4587 347.163 92.8756 346.372 91.1627 344.044 89.1739 341.962 86.9508 340.145 86.8675 339.926 86.6853 339.765 86.4562 339.739 85.6753 339.119 84.8631 338.536 84.0249 337.989 81.8382 336.558 79.4797 335.371 77.1942 334.23 75.4136 333.335 73.5654 332.408 71.8264 331.377 68.4996 329.399 66.011 327.186 64.397 324.786 64.371 325.203 64.3554 325.624 64.3502 326.046 64.3502 326.14 64.3554 326.228 64.3554 326.322 64.3241 326.369 64.2877 326.421 64.2669 326.483 62.4915 331.445 63.2256 338.119 63.8139 341.655 63.866 341.967 64.1367 342.186 64.4387 342.186 64.4751 342.186 64.5116 342.18 64.548 342.175 64.8916 342.118 65.1259 341.79 65.0686 341.446 64.5272 338.239 63.8712 332.366 65.1832 327.78 66.2609 328.93 67.5416 330.029 69.015 331.065 68.9994 331.133 68.9942 331.2 69.0046 331.273 69.4419 335.173 68.6766 339.234 66.844 342.701 66.6826 343.008 66.7971 343.393 67.1095 343.56 67.2032 343.607 67.3074 343.633 67.4063 343.633 67.6354 343.633 67.854 343.508 67.9686 343.295 69.7908 339.838 70.6238 335.844 70.3426 331.945 70.6134 332.117 70.8945 332.294 71.1809 332.465 71.8785 332.877 72.597 333.272 73.3155 333.658 73.3155 333.673 73.3102 333.689 73.3102 333.71 73.5497 338.468 72.9406 343.19 71.488 347.736 71.3839 348.069 71.5661 348.423 71.8993 348.527 71.9618 348.548 72.0295 348.558 72.092 348.558 72.3627 348.558 72.6126 348.386 72.7011 348.121 74.1276 343.654 74.7576 339.015 74.6014 334.335 75.2782 334.683 75.9603 335.027 76.6267 335.365 77.6679 335.886 78.7248 336.417 79.7713 336.974 78.4697 341.858 78.074 347.085 78.6363 352.098 78.6728 352.426 78.9487 352.661 79.2663 352.661 79.2923 352.661 79.3131 352.661 79.3392 352.656 79.6828 352.619 79.9379 352.307 79.8962 351.958 79.36 347.199 79.7192 342.248 80.9167 337.609 81.7393 338.067 82.5515 338.541 83.3324 339.051 84.1602 339.593 84.9568 340.171 85.7325 340.78 85.795 345.502 84.6184 350.167 82.3016 354.296 82.1298 354.598 82.2391 354.988 82.5463 355.155 82.6452 355.212 82.7493 355.238 82.8534 355.238 83.0773 355.238 83.296 355.118 83.4053 354.91 85.6544 350.906 86.8831 346.408 86.9925 341.826 88.4711 343.118 89.8247 344.544 91.0586 346.085 91.0534 346.148 91.0482 346.21 91.0534 346.273 91.7146 351.489 89.9601 356.826 88.4138 361.532 88.3045 361.866 88.4867 362.22 88.8199 362.329 88.8876 362.355 88.95 362.365 89.0177 362.365 89.2885 362.365 89.5331 362.194 89.6217 361.928 91.0326 357.638 92.6049 352.833 92.4539 347.965 92.8079 348.475 93.1568 348.99 93.5004 349.495 94.1355 350.448 94.7863 351.416 95.4944 352.343 94.9686 354.66 94.4375 357.055 94.2813 359.497 94.0887 362.381 94.4635 364.932 95.3903 367.087 95.4892 367.327 95.7287 367.473 95.9734 367.473 96.0567 367.473 96.14 367.452 96.2233 367.421 96.5409 367.28 96.6918 366.91 96.5565 366.588 95.7078 364.62 95.3694 362.261 95.5517 359.58 95.6818 357.57 96.0827 355.561 96.5148 353.598 96.8897 354.02 97.2802 354.431 97.6862 354.816 98.2902 355.384 98.9358 355.889 99.6074 356.362 99.6022 356.383 99.5918 356.399 99.5918 356.42 98.5661 361.454 98.8264 366.707 100.347 371.612 100.43 371.883 100.68 372.06 100.951 372.06 101.013 372.06 101.076 372.049 101.138 372.028 101.471 371.929 101.653 371.575 101.555 371.237 100.149 366.681 99.8677 361.813 100.748 357.123 101.966 357.888 103.236 358.56 104.486 359.221 104.595 359.278 104.704 359.335 104.814 359.393 103.96 364.547 103.267 370.44 105.048 375.954 105.136 376.219 105.381 376.391 105.652 376.391 105.72 376.391 105.787 376.381 105.85 376.36 106.183 376.256 106.365 375.897 106.256 375.563 104.6 370.466 105.199 364.927 105.99 360.022 107.021 360.58 108.036 361.163 108.984 361.813 109.135 361.918 109.286 362.027 109.442 362.136 109.343 362.282 109.312 362.464 109.354 362.646 110.515 367.046 110.14 371.768 108.297 375.933 108.151 376.251 108.302 376.625 108.614 376.766 108.703 376.808 108.786 376.823 108.875 376.823 109.119 376.823 109.354 376.683 109.453 376.448 111.29 372.289 111.759 367.608 110.791 363.178 112.04 364.208 113.217 365.338 114.367 366.463 114.294 366.577 114.248 366.718 114.263 366.864 114.404 368.504 114.529 370.253 114.471 371.961 114.362 375.131 113.612 378.333 112.3 381.223 112.16 381.54 112.295 381.915 112.618 382.061 112.701 382.103 112.79 382.118 112.878 382.118 113.123 382.118 113.352 381.978 113.461 381.748 114.836 378.708 115.622 375.34 115.737 372.007 115.789 370.544 115.711 369.081 115.596 367.671 116.835 368.884 118.116 370.086 119.496 371.174 118.918 375.402 119.188 379.807 120.297 383.925 120.375 384.206 120.631 384.393 120.912 384.393 120.964 384.393 121.021 384.383 121.073 384.372 121.411 384.284 121.609 383.93 121.521 383.592 120.521 379.869 120.24 375.902 120.667 372.06 122.26 373.179 123.973 374.111 125.759 374.85 124.733 378.776 124.639 382.936 125.498 386.903 125.561 387.199 125.826 387.403 126.118 387.403 126.165 387.403 126.206 387.397 126.253 387.387 126.597 387.314 126.81 386.976 126.738 386.637 125.925 382.909 126.009 379.005 126.951 375.308 128.575 375.891 130.257 376.323 131.965 376.605 131.46 378.312 130.96 380.067 130.7 381.873 130.366 384.128 130.465 386.163 130.986 387.934 131.064 388.21 131.319 388.392 131.595 388.392 131.652 388.392 131.715 388.381 131.772 388.366 132.105 388.267 132.298 387.913 132.204 387.58 131.736 385.986 131.647 384.128 131.954 382.061 132.215 380.275 132.725 378.505 133.24 376.782 134.349 376.912 135.463 376.974 136.583 376.974 137.093 376.974 137.593 376.959 138.103 376.927 138.473 380.655 137.952 384.456 136.572 387.944 136.442 388.267 136.604 388.636 136.926 388.767 137.004 388.798 137.083 388.813 137.161 388.813 137.416 388.813 137.65 388.662 137.749 388.413 139.201 384.753 139.748 380.759 139.368 376.839 141.258 376.657 143.132 376.287 144.949 375.73 145.199 377.932 145.444 380.197 145.527 382.425 145.621 384.836 145.553 387.928 144.2 390.5 144.038 390.813 144.158 391.198 144.465 391.359 144.559 391.411 144.663 391.432 144.757 391.432 144.986 391.432 145.204 391.307 145.319 391.094 146.808 388.256 146.886 384.945 146.792 382.378 146.704 380.01 146.438 377.625 146.173 375.313 147.245 374.928 148.287 374.475 149.302 373.96 149.557 377.74 150.952 381.415 153.285 384.414 153.415 384.576 153.597 384.659 153.784 384.659 153.92 384.659 154.06 384.617 154.175 384.523 154.451 384.305 154.498 383.909 154.284 383.633 151.983 380.681 150.661 377.021 150.53 373.283 151.103 372.95 151.66 372.591 152.207 372.216 153.441 371.357 154.602 370.393 155.721 369.378 155.336 373.637 156.565 378.047 159.136 381.457 159.256 381.624 159.449 381.712 159.642 381.712 159.772 381.712 159.907 381.67 160.022 381.587 160.303 381.374 160.355 380.978 160.147 380.697 157.46 377.136 156.356 372.393 157.189 368.009 158.184 367.035 159.152 366.041 160.11 365.057 161.235 363.896 162.344 362.756 163.473 361.678 163.322 367.192 163.369 372.762 163.624 378.265 163.64 378.604 163.921 378.869 164.26 378.869 164.265 378.869 164.28 378.869 164.286 378.869 164.64 378.854 164.91 378.557 164.889 378.203 164.624 372.351 164.582 366.416 164.77 360.559 164.77 360.533 164.765 360.512 164.765 360.491 165.785 359.585 166.837 358.737 167.951 357.987 167.539 363.677 168.539 369.399 170.866 374.621 170.976 374.855 171.205 374.996 171.444 374.996 171.533 374.996 171.621 374.98 171.705 374.944 172.027 374.798 172.168 374.423 172.027 374.106 169.648 368.79 168.711 362.933 169.299 357.143 169.768 356.867 170.257 356.607 170.747 356.373 171.465 356.024 172.22 355.722 172.996 355.441 173.313 360.069 175.245 364.625 178.374 368.056 178.499 368.191 178.671 368.259 178.842 368.259 178.993 368.259 179.144 368.207 179.269 368.098 179.524 367.858 179.55 367.457 179.311 367.202 176.297 363.901 174.464 359.476 174.24 355.009 175.359 354.639 176.5 354.311 177.629 353.983 178.379 353.77 179.134 353.551 179.884 353.322 180.816 357.68 181.722 362.173 181.107 366.619 181.06 366.968 181.3 367.291 181.649 367.337 181.68 367.337 181.706 367.337 181.737 367.337 182.05 367.337 182.32 367.113 182.362 366.796 183.013 362.095 182.018 357.248 181.097 352.937 182.737 352.39 184.33 351.755 185.767 350.922 186.865 354.988 188.87 358.809 191.598 362.022 191.723 362.173 191.9 362.246 192.082 362.246 192.228 362.246 192.374 362.194 192.493 362.095 192.759 361.866 192.79 361.47 192.566 361.204 189.875 358.034 187.922 354.233 186.902 350.209 188.104 349.355 189.172 348.324 190.02 347.017 190.635 346.08 191.082 345.065 191.447 344.023 191.931 345.799 192.467 347.585 193.207 349.297 194.342 351.937 195.81 354.035 197.575 355.545 197.695 355.644 197.84 355.696 197.986 355.696 198.163 355.696 198.34 355.618 198.47 355.472 198.694 355.207 198.663 354.806 198.397 354.577 196.778 353.192 195.425 351.25 194.362 348.792 193.405 346.569 192.785 344.164 192.181 341.837 192.171 341.8 192.16 341.769 192.145 341.738 192.212 341.493 192.28 341.248 192.342 341.004 192.837 339.187 193.311 337.458 194.175 335.933 194.623 337.099 195.128 338.229 195.622 339.338 196.013 340.202 196.414 341.103 196.778 341.993 197.97 344.919 198.449 347.173 198.351 349.297 198.335 349.646 198.606 349.943 198.949 349.964 198.96 349.964 198.97 349.964 198.986 349.964 199.319 349.964 199.6 349.698 199.616 349.355 199.767 346.351 198.741 343.44 197.955 341.514 197.585 340.603 197.179 339.697 196.789 338.817 196.179 337.458 195.555 336.063 195.06 334.642 195.721 333.829 196.518 333.111 197.393 332.46 198.767 337.099 201.011 341.566 203.932 345.419 204.057 345.585 204.244 345.669 204.442 345.669 204.577 345.669 204.707 345.627 204.822 345.538 205.103 345.33 205.16 344.935 204.947 344.653 202.037 340.811 199.808 336.334 198.491 331.695 199.251 331.195 200.037 330.711 200.818 330.242 200.943 330.164 201.073 330.091 201.198 330.008 202.083 334.157 203.968 338.052 206.686 341.321 206.811 341.472 206.988 341.545 207.17 341.545 207.316 341.545 207.456 341.498 207.576 341.399 207.847 341.176 207.878 340.775 207.654 340.509 204.973 337.281 203.146 333.418 202.349 329.3 202.765 329.04 203.177 328.769 203.578 328.493 204.957 332.08 207.191 336.797 211.054 339.629 211.168 339.713 211.299 339.749 211.424 339.749 211.621 339.749 211.814 339.661 211.939 339.494 212.137 339.213 212.074 338.817 211.788 338.614Z" fill="#FDDD57" transform="matrix(1.00024 0 0 1 390.139 109.982)"/></g><path d="M149.692 362.563 151.041 350.188 158.147 354.171C157.663 354.691 157.189 355.212 156.721 355.732 154.414 358.273 152.233 360.678 149.692 362.563ZM138.806 366.728 133.756 355.665 127.909 365.135C131.361 366.562 135.125 367.098 138.806 366.728ZM101.95 345.414C102.346 345.809 102.762 346.179 103.205 346.528L104.08 334.699 97.0355 338.447C97.504 339.14 97.9518 339.848 98.3787 340.535 99.5189 342.337 100.586 344.044 101.95 345.414ZM96.7856 338.062C96.8272 338.114 96.8532 338.172 96.8949 338.224L97.0667 324.495 89.6685 330.716 89.0125 317.195 80.2086 325.317 79.2715 311.812 69.9261 319.299C72.6334 321.334 75.5438 323.104 78.579 324.547 85.3837 327.769 91.8031 330.815 96.7856 338.062ZM112.212 352.151C114.388 353.744 116.247 355.696 118.043 357.586 119.522 359.143 120.922 360.616 122.474 361.886 124.14 363.25 125.972 364.328 127.909 365.135L126.842 353.504 119.615 359.049 119.032 347.022 111.389 351.578 111.733 339.9 103.205 346.528C104.574 347.605 106.131 348.485 107.76 349.402 109.239 350.235 110.77 351.099 112.212 352.151ZM184.398 338.073C185.168 336.807 185.595 335.35 186.038 333.803L177.307 330.404 177.582 342.852C180.425 341.826 182.903 340.514 184.398 338.073ZM188.266 328.212C189.578 326.166 191.176 324.307 193.04 322.657L184.351 320.689 186.038 333.803C186.053 333.762 186.064 333.715 186.079 333.673 186.6 331.851 187.141 329.972 188.266 328.212ZM142.919 354.899 138.879 366.723C142.731 366.327 146.485 364.948 149.692 362.563ZM167.373 346.502C169.549 345.382 171.918 344.653 174.204 343.951 175.359 343.597 176.494 343.248 177.582 342.852L166.415 335.089 167.076 346.658 158.028 341.998 158.277 354.025C160.953 351.135 163.812 348.329 167.373 346.502ZM193.238 322.485C194.477 321.407 195.82 320.418 197.283 319.522 198.2 318.965 199.142 318.45 200.089 317.971 199.48 316.763 198.908 315.55 198.429 314.337L192.764 308.995Z" fill="#7888C1" transform="matrix(1.00024 0 0 1 390.139 109.982)"/><path d="M77.8189 289.93C77.8866 289.789 77.9543 289.643 78.022 289.508 79.058 290.856 80.2867 292.116 81.6768 293.236 84.5923 295.584 88.2888 297.427 92.6674 298.713 92.7767 298.744 92.8444 298.864 92.8131 298.973 92.7871 299.067 92.6986 299.124 92.6101 299.124 92.5893 299.124 92.5684 299.119 92.5476 299.119 88.1222 297.817 84.3737 295.948 81.4061 293.564 80.0472 292.465 78.8446 291.242 77.8189 289.93ZM181.066 296.261C177.619 300.139 174.922 304.799 172.538 308.917 172.475 309.016 172.512 309.146 172.61 309.204 172.647 309.224 172.683 309.235 172.72 309.235 172.793 309.235 172.86 309.198 172.902 309.131 175.391 304.83 177.963 300.384 181.378 296.537 184.08 293.496 187.074 291.184 190.187 289.706 190.145 289.571 190.098 289.435 190.057 289.3 186.881 290.799 183.82 293.158 181.066 296.261ZM110.931 317.143C110.983 317.034 110.936 316.909 110.832 316.857 107.198 315.123 104.762 311.973 102.185 308.631 100.284 306.163 98.311 303.612 95.8224 301.722 95.7287 301.649 95.5985 301.67 95.5256 301.764 95.4579 301.857 95.4788 301.988 95.5725 302.06 98.0143 303.914 99.9666 306.439 101.851 308.886 104.345 312.119 106.927 315.462 110.65 317.237 110.681 317.253 110.707 317.258 110.739 317.258 110.817 317.258 110.895 317.216 110.931 317.143ZM145.527 337.109C149.458 334.73 152.457 331.205 155.424 327.499 155.497 327.41 155.487 327.275 155.393 327.202 155.305 327.134 155.169 327.145 155.096 327.238 152.144 330.914 149.177 334.407 145.308 336.75 140.961 339.379 136.109 339.936 132.324 338.239 132.22 338.192 132.095 338.239 132.048 338.343 132.001 338.447 132.048 338.578 132.152 338.625 133.657 339.301 135.318 339.629 137.051 339.629 139.826 339.624 142.778 338.77 145.527 337.109ZM143.45 334.97C147.563 333.423 150.64 330.154 153.623 326.994 155.929 324.547 158.314 322.016 161.162 320.283 161.266 320.22 161.297 320.09 161.235 319.991 161.177 319.887 161.047 319.861 160.943 319.918 158.043 321.683 155.643 324.239 153.316 326.702 150.369 329.826 147.318 333.064 143.299 334.574 143.19 334.616 143.137 334.735 143.179 334.845 143.21 334.928 143.294 334.98 143.377 334.98 143.398 334.985 143.424 334.98 143.45 334.97ZM168.018 316.878C172.012 315.722 173.86 312.775 175.818 309.651 176.135 309.141 176.458 308.631 176.796 308.115L176.828 308.069C179.321 304.247 181.904 300.301 185.533 297.432 185.626 297.359 185.637 297.224 185.564 297.135 185.496 297.047 185.361 297.031 185.272 297.099 181.591 300.014 178.988 303.992 176.474 307.84L176.448 307.886C176.109 308.402 175.781 308.922 175.464 309.433 173.553 312.484 171.741 315.368 167.904 316.477 167.789 316.513 167.727 316.628 167.763 316.737 167.784 316.831 167.873 316.893 167.966 316.893 167.982 316.888 167.998 316.888 168.018 316.878ZM178.603 296.375C179.748 295.225 181.003 294.173 182.331 293.246 182.424 293.178 182.445 293.048 182.378 292.949 182.31 292.856 182.18 292.835 182.086 292.903 180.738 293.845 179.462 294.912 178.306 296.078 178.223 296.162 178.223 296.292 178.306 296.38 178.348 296.422 178.405 296.443 178.452 296.443 178.509 296.438 178.561 296.417 178.603 296.375Z" fill="#F8F0CD" transform="matrix(1.00024 0 0 1 390.139 109.982)"/></g></svg>